<?xml version="1.0" encoding="utf-8"?>
<!-- Generator: Adobe Illustrator 22.0.1, SVG Export Plug-In . SVG Version: 6.00 Build 0)  -->
<svg version="1.1" id="_x35_3917d2c-59b7-443c-9dc6-ca37ebed1a74"
	 xmlns="http://www.w3.org/2000/svg" xmlns:xlink="http://www.w3.org/1999/xlink" x="0px" y="0px" viewBox="0 0 560.6 646.9"
	 style="enable-background:new 0 0 560.6 646.9;" xml:space="preserve">
<style type="text/css">
	.st0{fill:#F27400;}
	.st1{fill:#FFFFFF;}
	.st2{fill:#FFFFFF;stroke:#F27400;stroke-width:5.6693;stroke-miterlimit:10;}
</style>
<title>events</title>
<rect x="1.3" y="-0.3" class="st0" width="557.3" height="647.1"/>
<rect x="34.9" y="72.6" class="st1" width="140.9" height="11.2"/>
<rect x="34.9" y="100" class="st1" width="240.6" height="11.2"/>
<rect x="431.9" y="61.9" class="st2" width="100" height="86.3"/>
<rect x="330.9" y="61.9" class="st2" width="100" height="86.3"/>
<rect x="431.9" y="149.2" class="st2" width="100" height="86.3"/>
<rect x="330.9" y="149.2" class="st2" width="100" height="86.3"/>
<rect x="229.9" y="149.2" class="st2" width="100" height="86.3"/>
<rect x="128.9" y="149.2" class="st2" width="100" height="86.3"/>
<rect x="27.9" y="149.2" class="st2" width="100" height="86.3"/>
<rect x="431.9" y="236.4" class="st2" width="100" height="86.3"/>
<rect x="330.9" y="236.4" class="st2" width="100" height="86.3"/>
<rect x="229.9" y="236.4" class="st2" width="100" height="86.3"/>
<rect x="128.9" y="236.4" class="st2" width="100" height="86.3"/>
<rect x="27.9" y="236.4" class="st2" width="100" height="86.3"/>
<rect x="431.9" y="323.7" class="st2" width="100" height="86.3"/>
<rect x="330.9" y="323.7" class="st2" width="100" height="86.3"/>
<rect x="229.9" y="323.7" class="st2" width="100" height="86.3"/>
<rect x="128.9" y="323.7" class="st2" width="100" height="86.3"/>
<rect x="27.9" y="323.7" class="st2" width="100" height="86.3"/>
<rect x="431.9" y="411" class="st2" width="100" height="86.3"/>
<rect x="330.9" y="411" class="st2" width="100" height="86.3"/>
<rect x="229.9" y="411" class="st2" width="100" height="86.3"/>
<rect x="128.9" y="411" class="st2" width="100" height="86.3"/>
<rect x="27.9" y="411" class="st2" width="100" height="86.3"/>
<rect x="431.9" y="498.3" class="st2" width="100" height="86.3"/>
<rect x="330.9" y="498.3" class="st2" width="100" height="86.3"/>
<rect x="229.9" y="498.3" class="st2" width="100" height="86.3"/>
<rect x="128.9" y="498.3" class="st2" width="100" height="86.3"/>
<rect x="27.9" y="498.3" class="st2" width="100" height="86.3"/>
<circle class="st0" cx="41.1" cy="162.3" r="5.7"/>
<circle class="st0" cx="55.4" cy="162.3" r="5.7"/>
<circle class="st0" cx="242.4" cy="246.8" r="5.7"/>
<circle class="st0" cx="256.7" cy="246.8" r="5.7"/>
<circle class="st0" cx="446.5" cy="162.3" r="5.7"/>
<circle class="st0" cx="460.8" cy="162.3" r="5.7"/>
<circle class="st0" cx="475" cy="162.3" r="5.7"/>
<circle class="st0" cx="489.3" cy="162.3" r="5.7"/>
<circle class="st0" cx="446.5" cy="338.9" r="5.7"/>
<circle class="st0" cx="460.8" cy="338.9" r="5.7"/>
<circle class="st0" cx="475" cy="338.9" r="5.7"/>
<circle class="st0" cx="489.3" cy="338.9" r="5.7"/>
<circle class="st0" cx="141.8" cy="246.8" r="5.7"/>
<circle class="st0" cx="41.1" cy="333.2" r="5.7"/>
</svg>
