<?xml version="1.0" encoding="utf-8"?>
<!-- Generator: Adobe Illustrator 22.0.1, SVG Export Plug-In . SVG Version: 6.00 Build 0)  -->
<svg version="1.1" id="a1564cff-f165-45d5-b330-5a55512dec45"
	 xmlns="http://www.w3.org/2000/svg" xmlns:xlink="http://www.w3.org/1999/xlink" x="0px" y="0px" viewBox="0 0 362.2 131.6"
	 style="enable-background:new 0 0 362.2 131.6;" xml:space="preserve">
<style type="text/css">
	.st0{fill:#F27400;}
	.st1{fill:#FFB8B8;}
</style>
<path class="st0" d="M336.7,131.4h-51.7l-2.8-28.1l-0.2-1.7l-0.3-3.4L280.1,84l-1.8,15.2l-3.8,32.2h-9.4l0.3-10l0.3-10.1l0.2-4.1
	l1.9-55.6c-0.1-8.8,2.6-17.4,7.9-24.5c6-7.8,15.2-12.2,25-12.1c10,0,19.4,4.6,25.4,12.5c5.5,7.1,8.4,15.9,8.3,24.9l0.9,33.7
	L336.7,131.4z"/>
<circle class="st0" cx="300.8" cy="48.7" r="22.8"/>
<path class="st0" d="M289.5,64.9c0,0,6.5,21.9,0,28.4s-8.1,8.9-8.1,8.9l18.7,25.2l32.5-39.8c0,0-22.8-6.5-17.1-24.4L289.5,64.9z"/>
<polygon class="st0" points="359.7,131.4 340.5,131.4 340.2,128.1 339.9,125.1 348.7,124 359.4,122.6 359.5,126 "/>
<path class="st0" d="M361,125.9c0,0-3.3-20.3-5.7-28.4s-4.9-8.1-4.9-8.1h0l0,0c-2.9-2.9-9.8-3.4-15-3.3c-3.6,0-6.4,0.4-6.4,0.4
	l-29,30.6l-14.6-19.4v0c-1.3,0.1-2.6,0.3-3.9,0.7c-1.1,0.3-2.2,0.6-3.2,1c-4.5,1.9-8.7,4.6-12.3,7.9h0c-2.1,1.9-3.3,3.3-3.3,3.3
	c-3.2,6.7-5.6,13.7-7.2,21h92.9l0.2-4.2v0L361,125.9z"/>
<path class="st0" d="M281.7,45c14.7-7.9,20.7-7.6,39,0l4.9-11.9c0-4.7-3.8-8.4-8.4-8.4h-32.7c-4.7,0-8.4,3.8-8.4,8.4L281.7,45z"/>
<path class="st0" d="M66,6.2c-1.2-0.1-2.4,0.2-3.5,0.8c-1,0.9-1.8,1.9-2.4,3.1c-2.5,4.5-6,8.4-10.1,11.4c-3,2.2-6.8,4.9-6.3,9
	c0.3,1.3,0.8,2.6,1.5,3.8c2.8,5.6,10.3,9.9,9.6,16.3c2.8-4.6-0.9-6.9,1.8-11.5c1.3-2.2,3.6-4.7,5.6-3.3c0.7,0.5,1.1,1.3,1.8,1.7
	c1.6,1,3.4-0.9,4.9-2.2c5-4.5,12.2-3.3,18.4-1.9c3,0.7,6.2,1.5,7.9,4.4c2.3,3.7-2.2,7.7-3.3,11.9c-0.3,1.2,0.4,2.5,1.6,2.8
	c0.3,0.1,0.5,0.1,0.8,0.1c1.9-0.2,4.1-0.3,4.2-1.2c2.4,0.1,5.3-0.2,6.3-2.6c0.3-1,0.5-2,0.5-3c0.4-4.1,2.1-7.9,3.3-11.8
	s1.7-8.5-0.3-12c-0.7-1.2-1.6-2.2-2.6-3.1C94.6,8,80,6.2,66,6.2z"/>
<path class="st0" d="M57.2,58.7c0,0,2.4,20.2-6.5,21.8s8.1,29,8.1,29l40.3,4.8l-9.7-32.3c0,0-6.5-2.4-2.4-18.6S57.2,58.7,57.2,58.7z
	"/>
<circle class="st0" cx="75.4" cy="47.8" r="24.2"/>
<path class="st0" d="M33.7,130.1c4.3-16.8,10.2-39.5,10.2-39.5s2.3,0.5,5.9,1c5.3,0.8,10.6,1.3,16,1.5c6.8,0.2,14-0.3,19.6-2.2
	c2.1-0.7,4.1-1.7,5.8-3.1c0.7-0.6,1.4-1.3,1.9-2c9.7-12.9,13.7,36.3,13.7,36.3l0.8,8H33.7z"/>
<path class="st1" d="M21,182.1c-0.3,0-0.6,0-1,0l0.5-0.9C20.7,181.5,20.8,181.8,21,182.1z"/>
<path class="st0" d="M67.2,12.6c-1-0.1-2,0.1-2.8,0.5c-0.8,0.6-1.4,1.3-1.9,2.2c-2.2,3.2-5,6-8.2,8.1c-2.4,1.6-5.6,3.5-5.1,6.4
	c0.2,1,0.6,1.9,1.2,2.7c2.3,4,3.2,8.6,2.6,13.2l6.7-9.8c1.1-1.6,2.9-3.3,4.5-2.3c0.5,0.3,0.9,0.9,1.5,1.2c1.3,0.7,2.8-0.6,4-1.5
	c4.1-3.2,9.9-2.4,15-1.4c2.4,0.5,5,1.1,6.5,3.1c2.4,3.3-0.1,8.1,1.3,11.9c0.8-0.5,1.3-1.4,1.5-2.3c1.9,0.1,4.3-0.1,5.1-1.9
	c0.3-0.7,0.4-1.4,0.4-2.1c0.3-2.9,1.7-5.6,2.7-8.4s1.4-6-0.2-8.5c-0.6-0.8-1.3-1.6-2.1-2.2C90.5,13.8,78.6,12.5,67.2,12.6z"/>
<path class="st0" d="M64.9,91.4c-5.5-6.3-8.8-15.5-9-15.9v0c0,0-8.8-5-11.2-0.2s-25,16.9-27.4,16.9c0,0,0,0-0.1,0
	c-1,0.3-13,4.7-16.1,21c-0.8,5.6-1.3,11.2-1.3,16.9h65.8c0.7-7.1,1.2-13.8,1.4-19.6c0.3-8,0-14.3-1.2-17.5
	C65.6,92.4,65.3,91.9,64.9,91.4z"/>
<path class="st0" d="M121.4,95.9c0-0.2-0.1-0.3-0.1-0.5c-0.1-0.4-0.3-0.8-0.5-1.2c0,0,0,0,0,0C116.1,87,86.2,77,86.2,77L85,80.9
	c0,0,0.1,3.8,0.3,9.9c0.2,5.7,0.4,13.5,0.7,22c0.2,5.5,0.3,11.4,0.4,17.3h44.8C128.8,118.5,125.5,107.1,121.4,95.9z"/>
<path class="st0" d="M190.7,13.1L190.7,13.1c-18.9,0-34.2,17-34.2,37.9v26.6h8.2l4.7-9.9l-1.2,9.9h52.6l4.3-9l-1.1,9h5.9V56.7
	C230,32.6,212.4,13.1,190.7,13.1z"/>
<path class="st0" d="M163.1,130.1h-22.2l-0.2-18.1c0-0.2,0-0.4,0-0.6l4.5-5l0.1-0.1l17,10.8L163.1,130.1z"/>
<circle class="st0" cx="187.7" cy="49.6" r="24.3"/>
<path class="st0" d="M173.7,64.2c0,0,7.1,37,3.9,40.9s34.4-7.1,34.4-7.1s-12.3-25.3-5.8-39.6L173.7,64.2z"/>
<path class="st0" d="M239.7,89.2L239.7,89.2c-0.6-1.2-1.6-2.2-2.8-2.7c-4.8-2-8.9-3.5-12.3-4.7c-6-2.1-12.5-1.8-18.3,0.6
	c-0.6,0.2-1.1,0.5-1.7,0.8c0,0-23.8,4.5-26.6,4c-0.2,0-0.4-0.1-0.6-0.1c-0.4-0.1-0.9-0.1-1.3-0.1c-5.5-0.3-11,1.1-15.8,3.9
	c-7.8,4.5-19.4,12.6-19.6,20.4l-0.2,0.2l0.2,18.7h104.4c0.2-17.9,0.3-31.4,0.3-32.3C245.4,95,239.7,89.2,239.7,89.2z"/>
<path class="st0" d="M200.4,23.5c-3.3-4.5-8.6-7.1-14.1-7.2h-0.7c-12.9,0-23.4,11.7-23.4,26.1v0h4.3l0.7-5.3l1,5.3h25.7l2.2-4.5
	l-0.5,4.5h5.1c2.4,11.7-1,23.4-10.2,35.2h8.6l4.3-9l-1.1,9h16.4l3.2-20.7C221.9,41.4,212.9,28.2,200.4,23.5z"/>
<circle class="st0" cx="205.1" cy="12.9" r="12.8"/>
</svg>
