<?xml version="1.0" encoding="utf-8"?>
<!-- Generator: Adobe Illustrator 22.0.1, SVG Export Plug-In . SVG Version: 6.00 Build 0)  -->
<svg version="1.1" id="a433dce0-d5dc-4175-8ce6-641600ceb878"
	 xmlns="http://www.w3.org/2000/svg" xmlns:xlink="http://www.w3.org/1999/xlink" x="0px" y="0px" viewBox="0 0 353.9 188.9"
	 style="enable-background:new 0 0 353.9 188.9;" xml:space="preserve">
<style type="text/css">
	.st0{fill:#CCCCCC;}
	.st1{fill:#F27400;}
	.st2{fill:#3F3D56;}
</style>
<circle class="st0" cx="11.9" cy="9.9" r="9"/>
<circle class="st0" cx="11.9" cy="43.9" r="9"/>
<circle class="st0" cx="11.9" cy="77.9" r="9"/>
<circle class="st0" cx="11.9" cy="111.9" r="9"/>
<circle class="st0" cx="163.4" cy="179.9" r="9"/>
<circle class="st0" cx="98.4" cy="179.9" r="9"/>
<circle class="st0" cx="297.4" cy="179.9" r="9"/>
<circle class="st0" cx="229.4" cy="179.9" r="9"/>
<path class="st0" d="M352.9,10.9h-296c-0.6,0-1-0.4-1-1s0.4-1,1-1h296c0.6,0,1,0.4,1,1S353.5,10.9,352.9,10.9z"/>
<path class="st0" d="M352.9,44.9h-296c-0.6,0-1-0.4-1-1s0.4-1,1-1h296c0.6,0,1,0.4,1,1S353.5,44.9,352.9,44.9z"/>
<path class="st0" d="M352.9,78.9h-296c-0.6,0-1-0.4-1-1s0.4-1,1-1h296c0.6,0,1,0.4,1,1S353.5,78.9,352.9,78.9z"/>
<path class="st0" d="M352.9,112.9h-296c-0.6,0-1-0.4-1-1s0.4-1,1-1h296c0.6,0,1,0.4,1,1S353.5,112.9,352.9,112.9z"/>
<path class="st1" d="M112.9,146.9h-29c-2.8,0-5-2.2-5-5v-27c0-2.8,2.2-5,5-5h29c2.8,0,5,2.2,5,5v27
	C117.9,144.7,115.7,146.9,112.9,146.9z"/>
<path class="st1" d="M177.9,146.9h-29c-2.8,0-5-2.2-5-5v-61c0-2.8,2.2-5,5-5h29c2.8,0,5,2.2,5,5v61
	C182.9,144.7,180.7,146.9,177.9,146.9z"/>
<path class="st1" d="M243.9,146.9h-29c-2.8,0-5-2.2-5-5v-95c0-2.8,2.2-5,5-5h29c2.8,0,5,2.2,5,5v95
	C248.9,144.7,246.7,146.9,243.9,146.9z"/>
<path class="st1" d="M311.9,146.9h-29c-2.8,0-5-2.2-5-5v-128c0-2.8,2.2-5,5-5h29c2.8,0,5,2.2,5,5v128
	C316.9,144.7,314.7,146.9,311.9,146.9z"/>
<path class="st2" d="M352.9,146.9h-296c-0.6,0-1-0.4-1-1s0.4-1,1-1h296c0.6,0,1,0.4,1,1S353.5,146.9,352.9,146.9z"/>
</svg>
